<svg id="Layer_1" data-name="Layer 1" xmlns="http://www.w3.org/2000/svg" viewBox="55 0 280 45"> <path d="M121.81,8.71a12.24,12.24,0,0,0-12.25,12.23v16h6.11V21a6.13,6.13,0,0,1,12.24,0v4.74h-10.5l.93,5.31h9.6v5.87h6.12V21A12.25,12.25,0,0,0,121.81,8.71Zm57.16,0A12.24,12.24,0,0,0,166.73,21h0V36.89h6.12V21a6.13,6.13,0,0,1,12.24,0v4.74H174.56l.93,5.31h9.64v5.87h6.12V21A12.25,12.25,0,0,0,179,8.71h0Z" /> <path d="M79.39,25.05a12.25,12.25,0,1,1-24.49.71c0-.23,0-.47,0-.71V9.13H61V25.05a6.13,6.13,0,0,0,12.24,0V9.13h6.13Z" /> <path d="M162.63,36.89H156.5V21a6.13,6.13,0,0,0-12.24,0V36.89h-6.12V21a12.25,12.25,0,1,1,24.49-.72q0,.36,0,.72Z" /> <path d="M98.25,36.89H82.5l1-5.71H98.05a2.75,2.75,0,0,0,.58-5.47,2.81,2.81,0,0,0-.58,0H90.69a8.29,8.29,0,1,1,0-16.58h12.54l1,5.71H90.9a2.37,2.37,0,1,0,0,4.73h7.35a8.67,8.67,0,0,1,0,17.32Z" /> <path d="M194.27,36.86a1.45,1.45,0,1,1,1.42-1.49v0a1.4,1.4,0,0,1-1.35,1.45Zm0-2.66A1.21,1.21,0,0,0,193,35.31a1.2,1.2,0,1,0,2.39.19.28.28,0,0,0,0-.09,1.13,1.13,0,0,0-1-1.21h-.06ZM194,36.28h-.27V34.62h.61c.38,0,.59.13.59.46a.42.42,0,0,1-.39.44h0l.45.7h-.3l-.41-.68H194Zm.3-.92c.2,0,.37,0,.37-.24s-.18-.22-.35-.22H194v.46Z" /> </svg>